<svg xmlns="http://www.w3.org/2000/svg" height="40" viewBox="0 96 960 960" width="40"><path d="M226 794q59-39.666 121-60.833T480 712q71 0 133.333 21.167Q675.667 754.334 734.667 794q41-49.667 59.833-103.667 18.834-54 18.834-114.333 0-141-96.167-237.167T480 242.666q-141 0-237.167 96.167T146.666 576q0 60.333 19.167 114.333T226 794Zm253.876-184.667q-58.209 0-98.043-39.957Q342 529.419 342 471.209q0-58.209 39.957-98.042 39.958-39.834 98.167-39.834t98.043 39.958Q618 413.248 618 471.457q0 58.21-39.957 98.043-39.958 39.833-98.167 39.833ZM479.73 976q-83.097 0-156.183-31.5t-127.15-85.833q-54.064-54.334-85.23-127.227Q80 658.546 80 575.667q0-82.88 31.5-155.773Q143 347 197.333 293q54.334-54 127.227-85.5Q397.454 176 480.333 176q82.88 0 155.773 31.5Q709 239 763 293t85.5 127Q880 493 880 575.823q0 82.822-31.5 155.666T763 858.667Q709 913 635.914 944.5T479.73 976Z"/></svg>