<svg xmlns="http://www.w3.org/2000/svg" height="128" viewBox="0 96 960 960" width="128"><path d="M215.384 909q-27.782 0-48.083-20.301T147 840.616V311.384q0-27.782 20.301-48.083T215.384 243h529.232q27.782 0 48.083 20.301T813 311.384v529.232q0 27.782-20.301 48.083T744.616 909H215.384Zm0-43.769h529.232q9.23 0 16.923-7.692 7.692-7.693 7.692-16.923V311.384q0-9.23-7.692-16.923-7.693-7.692-16.923-7.692H215.384q-9.23 0-16.923 7.692-7.692 7.693-7.692 16.923v529.232q0 9.23 7.692 16.923 7.693 7.692 16.923 7.692Zm73.923-99.769h388.539L557.462 605.384 446.769 744.539l-72.461-88.77-85.001 109.693Zm-98.538 99.769V286.769v578.462Z"/></svg>