<svg xmlns="http://www.w3.org/2000/svg" height="48" viewBox="0 96 960 960" width="48" fill="#FFFFFF"><path d="M278 791q-89.583 0-152.292-62.707Q63 665.586 63 576.005q0-89.582 62.708-152.294Q188.417 361 278 361h404q89.583 0 152.292 62.707Q897 486.414 897 575.995q0 89.582-62.708 152.294Q771.583 791 682 791H278Zm.286-43.769H682q70.208 0 120.719-49.961 50.512-49.961 50.512-121.395 0-71.435-50.512-121.27Q752.208 404.769 682 404.769H278.286q-71.501 0-121.509 49.925-50.008 49.924-50.008 121.307 0 71.384 50.008 121.307t121.509 49.923ZM277.828 680q43.678 0 73.81-30.1 30.131-30.099 30.131-73.868 0-43.769-30.099-73.901Q321.57 472 277.891 472q-43.678 0-74.285 30.1Q173 532.199 173 575.968q0 43.769 30.575 73.901Q234.15 680 277.828 680ZM480 576Z"/></svg>